<svg fill="#000000" height="64px" width="64px" version="1.1" id="Layer_1" xmlns="http://www.w3.org/2000/svg" xmlns:xlink="http://www.w3.org/1999/xlink" viewBox="0 0 512 512" xml:space="preserve"><g id="SVGRepo_bgCarrier" stroke-width="0"></g><g id="SVGRepo_tracerCarrier" stroke-linecap="round" stroke-linejoin="round"></g><g id="SVGRepo_iconCarrier"> <g> <g> <path d="M314.435,0H214.261c-46.032,0-83.478,37.446-83.478,83.478v16.696H80.696c-9.217,0-16.696,7.473-16.696,16.696 c0,9.223,7.479,16.696,16.696,16.696h317.217V83.478C397.913,37.446,360.467,0,314.435,0z M264.348,100.174H164.174V66.783h83.478 c9.206,0,16.696,7.49,16.696,16.696V100.174z"></path> </g> </g> <g> <g> <path d="M402.99,321.027c-1.671-0.868-3.424-1.35-5.188-1.621c0.019-0.735,0.111-152.45,0.111-152.45h-267.13 c0,0,0.092,151.716,0.111,152.45c-1.763,0.271-3.516,0.752-5.188,1.621c-27.76,14.435-45.01,42.831-45.01,74.103v100.174 c0,9.223,7.479,16.696,16.696,16.696h333.913c9.217,0,16.696-7.473,16.696-16.696V395.13 C448,363.858,430.75,335.462,402.99,321.027z M331.13,200.348c9.22,0,16.696,7.475,16.696,16.696 c0,9.22-7.475,16.696-16.696,16.696s-16.696-7.475-16.696-16.696C314.435,207.823,321.91,200.348,331.13,200.348z M197.565,200.348c9.22,0,16.696,7.475,16.696,16.696c0,9.22-7.475,16.696-16.696,16.696c-9.22,0-16.696-7.475-16.696-16.696 C180.87,207.823,188.345,200.348,197.565,200.348z M197.565,300.522c0-18.413,14.978-33.391,33.391-33.391h16.696v-50.087 c0-9.223,7.479-16.696,16.696-16.696c9.217,0,16.696,7.473,16.696,16.696v50.087h16.696c18.413,0,33.391,14.978,33.391,33.391 c9.217,0,16.696,7.473,16.696,16.696c0,9.223-7.479,16.696-16.696,16.696c-18.413,0-33.391-14.978-33.391-33.391h-66.783 c0,18.413-14.978,33.391-33.391,33.391c-9.217,0-16.696-7.473-16.696-16.696C180.87,307.995,188.348,300.522,197.565,300.522z M381.217,478.609H147.478V367.094c15.238,20.351,39.46,33.602,66.783,33.602h100.174c27.323,0,51.545-13.252,66.783-33.602 V478.609z"></path> </g> </g> </g></svg>